<?xml version="1.0" encoding="UTF-8" standalone="no"?>
<!-- Generator: Adobe Illustrator 19.2.0, SVG Export Plug-In . SVG Version: 6.00 Build 0)  -->

<svg
   xmlns:dc="http://purl.org/dc/elements/1.1/"
   xmlns:cc="http://creativecommons.org/ns#"
   xmlns:rdf="http://www.w3.org/1999/02/22-rdf-syntax-ns#"
   xmlns:svg="http://www.w3.org/2000/svg"
   xmlns="http://www.w3.org/2000/svg"
   xmlns:sodipodi="http://sodipodi.sourceforge.net/DTD/sodipodi-0.dtd"
   xmlns:inkscape="http://www.inkscape.org/namespaces/inkscape"
   version="1.0"
   id="Layer_1"
   x="0px"
   y="0px"
   viewBox="0 0 312.00001 96"
   xml:space="preserve"
   sodipodi:docname="EndlessLogo.svg"
   width="312"
   height="96"
   inkscape:version="0.92.1 r"><metadata
     id="metadata3778"><rdf:RDF><cc:Work
         rdf:about=""><dc:format>image/svg+xml</dc:format><dc:type
           rdf:resource="http://purl.org/dc/dcmitype/StillImage" /><dc:title></dc:title></cc:Work></rdf:RDF></metadata><defs
     id="defs3776" /><sodipodi:namedview
     pagecolor="#ffffff"
     bordercolor="#666666"
     borderopacity="1"
     objecttolerance="10"
     gridtolerance="10"
     guidetolerance="10"
     inkscape:pageopacity="0"
     inkscape:pageshadow="2"
     inkscape:window-width="3200"
     inkscape:window-height="1671"
     id="namedview3774"
     showgrid="false"
     inkscape:zoom="6.8335991"
     inkscape:cx="219.64999"
     inkscape:cy="87"
     inkscape:window-x="0"
     inkscape:window-y="55"
     inkscape:window-maximized="1"
     inkscape:current-layer="Layer_1" /><style
     type="text/css"
     id="style3749">
	.st0{fill:#F15B25;}
	.st1{fill:#424342;}
</style><path
     class="st0"
     d="m 187.7226,11.208969 c -6.80272,0 -16.19694,3.806282 -24.94329,8.341427 l -8.42242,-4.373176 c 6.88371,-3.806282 12.95756,-7.774534 16.27793,-10.123091 l 1.53871,-0.971817 c 0.64788,-0.485908 0.72887,-1.457725 0.24296,-2.105603 l -0.89083,-1.21477 c -0.48591,-0.728863 -1.37674,-0.971817 -1.86265,-0.566894 L 169.33907,0.438 c -2.59151,1.862648 -8.90832,5.99287 -16.27793,10.204075 -1.29576,0.728863 -2.51053,1.457726 -3.7253,2.105603 -11.41885,-4.940068 -19.76027,-7.36961 -24.78133,-7.36961 -4.85908,0 -10.36604,1.133786 -10.36604,10.204076 0,4.859084 1.86265,10.608999 10.36604,10.608999 6.80272,0 16.19695,-3.806282 24.9433,-8.341427 l 8.42241,4.292191 c -6.47878,3.725298 -12.22869,7.36961 -15.63005,9.637183 v 0 l -1.94363,1.295755 c -0.72887,0.485909 -0.89084,1.457726 -0.40493,2.186588 l 0.89083,1.214771 c 0.48591,0.647878 1.45773,0.890832 2.10561,0.404924 v 0 l 1.21477,-0.809848 c 3.07742,-2.105603 8.74635,-5.749915 15.14414,-9.475213 1.29576,-0.728862 2.51053,-1.457725 3.7253,-2.024618 11.41885,4.859084 19.84126,7.36961 24.78133,7.36961 4.85908,0 10.36604,-1.133786 10.36604,-10.204076 0,-4.778099 -1.86265,-10.528014 -10.44703,-10.528014 m -63.16809,10.366045 c -4.85908,0 -5.8309,-2.186588 -5.8309,-5.99287 0,-4.778099 1.53871,-5.587946 5.8309,-5.587946 3.80629,0 10.44703,1.862648 19.35535,5.425976 -8.26044,4.130222 -14.8202,6.15484 -19.35535,6.15484 m 63.16809,5.8309 c -3.80628,0 -10.44703,-1.862648 -19.35535,-5.425976 8.34143,-3.968252 14.90119,-6.15484 19.35535,-6.15484 4.85909,0 5.8309,2.186588 5.8309,5.99287 0.081,4.859084 -1.45772,5.587946 -5.8309,5.587946"
     id="path3751"
     inkscape:connector-curvature="0"
     style="fill:#f15b25;stroke-width:0.8098473" /><path
     class="st1"
     d="m 241.65843,81.66568 c 0,6.47878 -3.1584,10.609 -8.01749,10.609 -4.85908,0 -8.01748,-4.13022 -8.01748,-10.609 0,-6.55976 3.07742,-10.609 8.01748,-10.609 4.85909,0.081 8.01749,4.21121 8.01749,10.609 m -8.01749,-13.60543 c -6.80271,0 -11.41884,5.42598 -11.41884,13.60543 0,8.17946 4.53514,13.60544 11.41884,13.60544 6.88371,0 11.33787,-5.42598 11.33787,-13.60544 -0.081,-8.09847 -4.53515,-13.60543 -11.33787,-13.60543"
     id="path3753"
     inkscape:connector-curvature="0"
     style="fill:#424342;stroke-width:0.8098473" /><path
     class="st1"
     d="m 264.82006,79.965 c -4.94006,-1.53871 -6.80271,-2.42954 -6.80271,-5.18302 0,-2.26757 2.02462,-3.7253 5.18302,-3.7253 2.75348,0 4.69711,0.97182 6.07385,3.15841 l 0.40493,0.64788 c 0.24295,0.32393 0.64788,0.4859 0.97181,0.24295 v 0 l 1.45773,-0.80985 c 0.32394,-0.24295 0.48591,-0.64788 0.24295,-0.97181 v 0 l -0.4859,-0.72887 c -1.70068,-2.91545 -4.69712,-4.53514 -8.58439,-4.53514 -5.02105,0 -8.42241,2.91545 -8.42241,6.96469 0,4.69711 3.64432,6.15483 8.74635,7.69354 5.02106,1.53871 6.47878,2.75349 6.47878,5.345 0,2.59151 -2.26757,4.2112 -5.99287,4.2112 -3.23939,0 -5.58794,-1.53871 -6.96468,-4.45416 l -0.081,-0.16197 c -0.24295,-0.40492 -0.64788,-0.48591 -0.97182,-0.40492 l -1.45772,0.64788 c -0.40493,0.24295 -0.48591,0.64787 -0.40493,0.97181 l 0.24296,0.48591 v 0 c 1.70068,3.64432 5.18302,5.74992 9.47521,5.74992 5.50696,0 9.39423,-3.07742 9.39423,-7.36961 -0.081,-4.37318 -3.07742,-6.15484 -8.5034,-7.77454"
     id="path3755"
     inkscape:connector-curvature="0"
     style="fill:#424342;stroke-width:0.8098473" /><path
     class="st1"
     d="m 70.37573,68.54616 h -6.15484 c -0.404923,0 -0.728862,0.32394 -0.728862,0.72886 v 24.78133 c 0,0.40492 0.323939,0.72886 0.728862,0.72886 h 6.15484 c 8.58438,0 13.11953,-4.53515 13.11953,-13.20051 0,-8.58438 -4.53515,-13.03854 -13.11953,-13.03854 m 9.88014,13.03854 c 0,6.96468 -2.99644,10.20407 -9.475217,10.20407 H 66.812402 V 71.62358 h 3.968251 c 6.316807,0 9.475217,3.23939 9.475217,9.96112"
     id="path3757"
     inkscape:connector-curvature="0"
     style="fill:#424342;stroke-width:0.8098473" /><path
     class="st1"
     d="m 48.752807,68.54616 h -1.53871 c -0.404924,0 -0.728862,0.32394 -0.728862,0.72886 V 88.95431 L 33.365708,69.11305 C 33.203739,68.78911 32.8798,68.62714 32.555861,68.62714 h -2.105603 c -0.485908,0 -0.809847,0.40493 -0.809847,0.80985 v 24.61936 c 0,0.40492 0.323939,0.72886 0.728862,0.72886 h 1.53871 c 0.404924,0 0.728863,-0.32394 0.728863,-0.72886 v -20.1652 l 13.52445,20.32717 c 0.242954,0.32393 0.404923,0.64787 0.809847,0.64787 h 1.700679 c 0.404924,0 0.728863,-0.32394 0.728863,-0.80984 V 69.356 c 0.161969,-0.4859 -0.242954,-0.80984 -0.647878,-0.80984"
     id="path3759"
     inkscape:connector-curvature="0"
     style="fill:#424342;stroke-width:0.8098473" /><path
     class="st1"
     d="M 111.19203,91.78877 H 99.53023 V 69.356 c 0,-0.40492 -0.32394,-0.72886 -0.72886,-0.80984 h -1.78166 c -0.40493,0 -0.72887,0.40492 -0.72887,0.80984 v 24.70035 c 0,0.40492 0.32394,0.72886 0.72887,0.72886 h 14.25331 c 0.40492,0 0.72886,-0.32394 0.72886,-0.72886 v -1.53871 c 0,-0.40493 -0.32394,-0.72887 -0.80985,-0.72887"
     id="path3761"
     inkscape:connector-curvature="0"
     style="fill:#424342;stroke-width:0.8098473" /><path
     class="st1"
     d="M 16.034976,68.54616 H 0 v 26.23905 h 16.034976 c 0.404924,0 0.728863,-0.32394 0.728863,-0.72886 v -1.53871 c 0,-0.40493 -0.323939,-0.72887 -0.728863,-0.72887 H 3.239389 v -8.58438 h 8.746351 c 0.404924,0 0.728862,-0.32394 0.728862,-0.72886 v -1.53871 c 0,-0.40492 -0.323938,-0.72886 -0.728862,-0.72886 H 3.239389 v -8.5034 h 12.795587 c 0.404924,0 0.728863,-0.32394 0.728863,-0.72886 v -1.53871 c 0,-0.56689 -0.323939,-0.89083 -0.728863,-0.89083"
     id="path3763"
     inkscape:connector-curvature="0"
     style="fill:#424342;stroke-width:0.8098473" /><path
     class="st1"
     d="m 139.86063,68.54616 h -15.30612 c -0.40492,0 -0.72886,0.32394 -0.72886,0.72886 v 24.78133 c 0,0.40492 0.32394,0.72886 0.72886,0.72886 h 15.30612 c 0.40492,0 0.72886,-0.32394 0.72886,-0.72886 v -1.53871 c 0,-0.40493 -0.32394,-0.72887 -0.72886,-0.72887 h -12.79559 v -8.58438 h 8.74635 c 0.40492,0 0.72886,-0.32394 0.72886,-0.72886 v -1.53871 c 0,-0.40492 -0.32394,-0.72886 -0.72886,-0.72886 h -8.74635 v -8.5034 h 12.79559 c 0.40492,0 0.72886,-0.32394 0.72886,-0.72886 V 69.356 c 0,-0.4859 -0.24295,-0.80984 -0.72886,-0.80984"
     id="path3765"
     inkscape:connector-curvature="0"
     style="fill:#424342;stroke-width:0.8098473" /><path
     class="st1"
     d="m 191.20495,80.04599 c -4.85909,-1.53871 -6.72174,-2.42954 -6.72174,-5.18302 0,-2.26758 2.02462,-3.7253 5.10204,-3.7253 2.75348,0 4.69712,0.97181 5.99287,3.1584 l 0.40492,0.64788 c 0.24296,0.32394 0.64788,0.48591 0.97182,0.24295 v 0 l 1.45773,-0.80984 c 0.32394,-0.24296 0.4859,-0.64788 0.24295,-0.97182 l -0.48591,-0.72886 c -1.70068,-2.91545 -4.69711,-4.53515 -8.58438,-4.53515 -4.94007,0 -8.42241,2.91545 -8.42241,6.96469 0,4.69711 3.56333,6.15484 8.66537,7.69355 4.94006,1.53871 6.39779,2.75348 6.39779,5.34499 0,2.59151 -2.26757,4.13022 -5.91189,4.13022 -3.23939,0 -5.58794,-1.53871 -6.96468,-4.45416 l -0.081,-0.16197 c -0.24295,-0.40492 -0.64788,-0.48591 -0.97181,-0.40492 l -1.45773,0.64788 c -0.40492,0.24295 -0.48591,0.64787 -0.40492,0.97181 l 0.24295,0.48591 v 0 c 1.70068,3.64432 5.10204,5.74992 9.47521,5.74992 5.42598,0 9.31325,-3.07742 9.31325,-7.36961 0,-4.21121 -2.99644,-6.15484 -8.26044,-7.69355"
     id="path3767"
     inkscape:connector-curvature="0"
     style="fill:#424342;stroke-width:0.8098473" /><path
     class="st1"
     d="m 161.7265,80.04599 c -4.85908,-1.53871 -6.72173,-2.42954 -6.72173,-5.18302 0,-2.26758 2.02462,-3.7253 5.10204,-3.7253 2.75348,0 4.69711,0.97181 5.99287,3.1584 l 0.40492,0.64788 c 0.24296,0.32394 0.64788,0.48591 0.97182,0.24295 v 0 l 1.45772,-0.80984 c 0.32394,-0.24296 0.48591,-0.64788 0.24296,-0.97182 l -0.48591,-0.72886 c -1.70068,-2.91545 -4.69711,-4.53515 -8.58438,-4.53515 -4.94007,0 -8.42241,2.91545 -8.42241,6.96469 0,4.69711 3.56333,6.15484 8.66536,7.69355 4.94007,1.53871 6.3978,2.75348 6.3978,5.34499 0,2.59151 -2.26758,4.13022 -5.91189,4.13022 -3.23939,0 -5.58794,-1.53871 -6.96468,-4.45416 l -0.081,-0.16197 c -0.24295,-0.40492 -0.64788,-0.48591 -0.97182,-0.40492 l -1.45772,0.64788 c -0.40492,0.24295 -0.48591,0.64787 -0.40492,0.97181 l 0.24295,0.48591 v 0 c 1.70068,3.64432 5.10204,5.74992 9.47521,5.74992 5.42598,0 9.31325,-3.07742 9.31325,-7.36961 0.081,-4.21121 -2.99644,-6.15484 -8.26045,-7.69355"
     id="path3769"
     inkscape:connector-curvature="0"
     style="fill:#424342;stroke-width:0.8098473" /><path
     class="st1"
     d="m 293.89358,90.574 1.13379,-0.89083 c 0.32394,-0.24295 0.80985,-0.24295 1.0528,0.16197 v 0 c 1.53871,2.18659 4.13022,3.40136 6.80272,3.32037 3.80628,0 6.15484,-1.94363 6.15484,-5.18302 0,-3.80628 -2.34856,-5.58794 -8.42242,-5.58794 h -0.081 c -0.72886,0 -0.97182,-0.32394 -0.97182,-0.72887 v -0.97181 c 0,-0.64788 0.32394,-0.89084 0.80985,-0.89084 h 0.48591 c 5.58795,0 7.53158,-1.70068 7.53158,-4.77809 0,-2.59152 -1.53871,-4.37318 -5.42598,-4.37318 -2.18659,0 -4.37317,0.89083 -5.91188,2.51053 -0.32394,0.32394 -0.72887,0.32394 -1.13379,0.081 l -0.97182,-0.89083 c -0.32394,-0.24296 -0.32394,-0.72886 -0.081,-1.0528 v 0 c 2.18659,-2.18659 5.18302,-3.48235 8.26044,-3.48235 5.74992,0 8.34143,3.07742 8.34143,6.80272 0,2.91545 -1.53871,5.74992 -4.61613,6.3978 4.13022,0.081 5.34499,4.69711 5.34499,7.12665 0,4.61613 -3.64431,7.85552 -9.39423,7.85552 -3.80628,0 -7.12665,-1.53871 -9.23226,-4.37318 0,-0.40492 0,-0.80984 0.32394,-1.0528 z"
     id="path3771"
     inkscape:connector-curvature="0"
     style="fill:#424342;stroke-width:0.8098473" /></svg>