<?xml version="1.0" encoding="UTF-8" standalone="no"?>
<!-- Generator: Adobe Illustrator 21.1.0, SVG Export Plug-In . SVG Version: 6.00 Build 0)  -->

<svg
   xmlns:dc="http://purl.org/dc/elements/1.1/"
   xmlns:cc="http://creativecommons.org/ns#"
   xmlns:rdf="http://www.w3.org/1999/02/22-rdf-syntax-ns#"
   xmlns:svg="http://www.w3.org/2000/svg"
   xmlns="http://www.w3.org/2000/svg"
   xmlns:sodipodi="http://sodipodi.sourceforge.net/DTD/sodipodi-0.dtd"
   xmlns:inkscape="http://www.inkscape.org/namespaces/inkscape"
   version="1.1"
   id="Layer_1"
   x="0px"
   y="0px"
   viewBox="0 0 255 81"
   xml:space="preserve"
   sodipodi:docname="try-endless-dvd.svg"
   width="255"
   height="81"
   inkscape:version="0.92+devel unknown"><metadata
     id="metadata41"><rdf:RDF><cc:Work
         rdf:about=""><dc:format>image/svg+xml</dc:format><dc:type
           rdf:resource="http://purl.org/dc/dcmitype/StillImage" /><dc:title></dc:title></cc:Work></rdf:RDF></metadata><defs
     id="defs39" /><sodipodi:namedview
     pagecolor="#ffffff"
     bordercolor="#666666"
     inkscape:document-rotation="0"
     borderopacity="1"
     objecttolerance="10"
     gridtolerance="10"
     guidetolerance="10"
     inkscape:pageopacity="0"
     inkscape:pageshadow="2"
     inkscape:window-width="1600"
     inkscape:window-height="835"
     id="namedview37"
     showgrid="false"
     fit-margin-top="0"
     fit-margin-left="0"
     fit-margin-right="0"
     fit-margin-bottom="0"
     inkscape:zoom="2.2229958"
     inkscape:cx="117.22962"
     inkscape:cy="19.000002"
     inkscape:window-x="0"
     inkscape:window-y="0"
     inkscape:window-maximized="1"
     inkscape:current-layer="Layer_1" /><style
     type="text/css"
     id="style2">
	.st0{fill:#EAEAEA;}
	.st1{fill-rule:evenodd;clip-rule:evenodd;fill:#FFFFFF;}
	.st2{fill-rule:evenodd;clip-rule:evenodd;fill:#999999;}
	.st3{fill:#F15B24;}
	.st4{fill:#CCCCCB;}
	.st5{fill:#FFFFFF;}
</style><g
     id="g4308"
     transform="matrix(1.6666667,0,0,1.6666667,-51.666668,-41.500001)"><path
       class="st1"
       d="m 127.3,28.4 h 54.3 v 36.8 h -54.3 z"
       id="path6"
       inkscape:connector-curvature="0" /><path
       class="st2"
       d="m 180.2,25.5 h -51.4 c -2.1,0 -3.8,1.8 -3.8,3.9 v 34 c 0,2.2 1.7,3.9 3.8,3.9 h 51.4 c 2.1,0 3.8,-1.8 3.8,-3.9 v -34 c 0,-2.1 -1.7,-3.9 -3.8,-3.9 z m -0.3,37.6 c 0,0.1 -0.1,0.2 -0.2,0.2 h -50.3 c -0.1,0 -0.2,-0.1 -0.2,-0.2 V 29.8 c 0,-0.1 0.1,-0.2 0.2,-0.2 h 50.3 c 0.1,0 0.2,0.1 0.2,0.2 z"
       id="path10"
       inkscape:connector-curvature="0" /><path
       class="st2"
       d="m 164.4,69.9 h -4.7 v -2.6 h -9.3 v 2.6 h -4.6 c -2.1,0 -3.8,1.5 -4,3.6 h 26.6 c -0.2,-2.1 -1.9,-3.6 -4,-3.6 z"
       id="path12"
       inkscape:connector-curvature="0" /><path
       class="st3"
       d="m 162.9,45.6 c -1.5,-0.9 -4.3,0.2 -6.8,1.6 -0.6,-0.3 -1.3,-0.7 -1.9,-1 1.9,-1.1 3.4,-2.2 3.7,-2.5 0.2,-0.2 0.3,-0.5 0.1,-0.8 -0.2,-0.3 -0.5,-0.3 -0.7,-0.1 -1.2,0.9 -2.8,2 -4.4,2.9 -3,-1.4 -5.6,-2.3 -6.9,-1.5 -0.4,0.2 -0.9,0.8 -0.9,1.8 -0.1,1.6 0.5,2.3 1,2.6 1.5,0.9 4.3,-0.2 6.8,-1.6 0.6,0.3 1.3,0.7 1.9,1 -1.9,1.1 -3.4,2.3 -3.7,2.5 -0.2,0.2 -0.3,0.5 -0.1,0.8 0.2,0.3 0.5,0.3 0.7,0.1 1.2,-0.9 2.8,-2 4.4,-2.9 3,1.4 5.6,2.3 6.9,1.5 0.4,-0.2 0.9,-0.8 0.9,-1.8 0.1,-1.5 -0.5,-2.3 -1,-2.6 z m -16.3,2 c -0.1,-0.1 -0.6,-0.3 -0.5,-1.5 0,-0.6 0.2,-0.8 0.4,-0.9 0.3,-0.2 0.8,-0.2 1.5,-0.1 1,0.2 2.3,0.7 3.7,1.3 -2.2,1.1 -4.2,1.8 -5.1,1.2 z m 16.3,0.6 c 0,0.6 -0.2,0.8 -0.4,0.9 -0.3,0.2 -0.8,0.2 -1.5,0.1 -1,-0.2 -2.3,-0.7 -3.7,-1.3 2.2,-1.1 4.2,-1.8 5.1,-1.3 0.1,0.1 0.5,0.4 0.5,1.6 z"
       id="path16"
       inkscape:connector-curvature="0" /><path
       class="st4"
       d="M 54.5,24.9 C 41.5,24.9 31,35.4 31,48.4 31,61.4 41.5,71.9 54.5,71.9 67.5,71.9 78,61.4 78,48.4 78,35.4 67.4,24.9 54.5,24.9 Z m 0,31.1 c -4.2,0 -7.6,-3.4 -7.6,-7.6 0,-4.2 3.4,-7.6 7.6,-7.6 4.2,0 7.6,3.4 7.6,7.6 0,4.2 -3.4,7.6 -7.6,7.6 z"
       id="path20"
       inkscape:connector-curvature="0" /><path
       class="st5"
       d="m 54.5,41.3 c -3.9,0 -7.1,3.2 -7.1,7.1 0,3.9 3.2,7.1 7.1,7.1 3.9,0 7.1,-3.2 7.1,-7.1 0,-4 -3.2,-7.1 -7.1,-7.1 z m 2,7.3 c -0.2,1.2 -1.2,2 -2.4,1.8 -1.2,-0.2 -2,-1.2 -1.8,-2.4 0.2,-1.2 1.2,-2 2.4,-1.8 1.2,0.2 2,1.3 1.8,2.4 z"
       id="path24"
       inkscape:connector-curvature="0" /><path
       class="st4"
       d="m 95.8,48.5 c 0,1.1 -0.9,2 -1.9,2 -1,0 -1.9,-0.9 -1.9,-2 0,-1.1 0.9,-2 1.9,-2 1,0 1.9,0.9 1.9,2 z"
       id="path28"
       inkscape:connector-curvature="0" /><path
       class="st4"
       d="m 103.4,48.5 c 0,1.1 -0.9,2 -1.9,2 -1,0 -1.9,-0.9 -1.9,-2 0,-1.1 0.9,-2 1.9,-2 1,0 1.9,0.9 1.9,2 z"
       id="path30"
       inkscape:connector-curvature="0" /><path
       class="st4"
       d="m 111,48.5 c 0,1.1 -0.9,2 -1.9,2 -1,0 -1.9,-0.9 -1.9,-2 0,-1.1 0.9,-2 1.9,-2 1,0 1.9,0.9 1.9,2 z"
       id="path32"
       inkscape:connector-curvature="0" /></g></svg>