<?xml version="1.0" encoding="utf-8"?>
<!-- Generator: Adobe Illustrator 21.1.0, SVG Export Plug-In . SVG Version: 6.00 Build 0)  -->
<svg version="1.1" id="Layer_1" xmlns="http://www.w3.org/2000/svg" xmlns:xlink="http://www.w3.org/1999/xlink" x="0px" y="0px"
	 viewBox="0 0 612 792" style="enable-background:new 0 0 612 792;" xml:space="preserve">
<style type="text/css">
	.st0{fill:#EAEAEA;}
	.st1{fill-rule:evenodd;clip-rule:evenodd;fill:#FFFFFF;}
	.st2{fill-rule:evenodd;clip-rule:evenodd;fill:#999999;}
	.st3{fill:#F15B24;}
	.st4{fill:#CCCCCB;}
	.st5{fill:#FFFFFF;}
</style>
<rect x="151.5" y="347" class="st0" width="215.5" height="95"/>
<g>
	<path class="st1" d="M278.8,375.4h54.3v36.8h-54.3V375.4z"/>
</g>
<g>
	<path class="st2" d="M331.7,372.5h-51.4c-2.1,0-3.8,1.8-3.8,3.9v34c0,2.2,1.7,3.9,3.8,3.9h51.4c2.1,0,3.8-1.8,3.8-3.9v-34
		C335.5,374.3,333.8,372.5,331.7,372.5z M331.4,410.1c0,0.1-0.1,0.2-0.2,0.2h-50.3c-0.1,0-0.2-0.1-0.2-0.2v-33.3
		c0-0.1,0.1-0.2,0.2-0.2h50.3c0.1,0,0.2,0.1,0.2,0.2V410.1z"/>
	<path class="st2" d="M315.9,416.9h-4.7v-2.6h-9.3v2.6h-4.6c-2.1,0-3.8,1.5-4,3.6h26.6C319.7,418.4,318,416.9,315.9,416.9z"/>
</g>
<g>
	<path class="st3" d="M314.4,392.6c-1.5-0.9-4.3,0.2-6.8,1.6c-0.6-0.3-1.3-0.7-1.9-1c1.9-1.1,3.4-2.2,3.7-2.5
		c0.2-0.2,0.3-0.5,0.1-0.8c-0.2-0.3-0.5-0.3-0.7-0.1c-1.2,0.9-2.8,2-4.4,2.9c-3-1.4-5.6-2.3-6.9-1.5c-0.4,0.2-0.9,0.8-0.9,1.8
		c-0.1,1.6,0.5,2.3,1,2.6c1.5,0.9,4.3-0.2,6.8-1.6c0.6,0.3,1.3,0.7,1.9,1c-1.9,1.1-3.4,2.3-3.7,2.5c-0.2,0.2-0.3,0.5-0.1,0.8
		c0.2,0.3,0.5,0.3,0.7,0.1c1.2-0.9,2.8-2,4.4-2.9c3,1.4,5.6,2.3,6.9,1.5c0.4-0.2,0.9-0.8,0.9-1.8
		C315.5,393.7,314.9,392.9,314.4,392.6z M298.1,394.6c-0.1-0.1-0.6-0.3-0.5-1.5c0-0.6,0.2-0.8,0.4-0.9c0.3-0.2,0.8-0.2,1.5-0.1
		c1,0.2,2.3,0.7,3.7,1.3C301,394.5,299,395.2,298.1,394.6z M314.4,395.2c0,0.6-0.2,0.8-0.4,0.9c-0.3,0.2-0.8,0.2-1.5,0.1
		c-1-0.2-2.3-0.7-3.7-1.3c2.2-1.1,4.2-1.8,5.1-1.3C314,393.7,314.4,394,314.4,395.2z"/>
</g>
<g>
	<path class="st4" d="M206,371.9c-13,0-23.5,10.5-23.5,23.5c0,13,10.5,23.5,23.5,23.5s23.5-10.5,23.5-23.5
		C229.5,382.4,218.9,371.9,206,371.9z M206,403c-4.2,0-7.6-3.4-7.6-7.6c0-4.2,3.4-7.6,7.6-7.6c4.2,0,7.6,3.4,7.6,7.6
		C213.6,399.6,210.2,403,206,403z"/>
</g>
<g>
	<path class="st5" d="M206,388.3c-3.9,0-7.1,3.2-7.1,7.1c0,3.9,3.2,7.1,7.1,7.1s7.1-3.2,7.1-7.1C213.1,391.4,209.9,388.3,206,388.3z
		 M208,395.6c-0.2,1.2-1.2,2-2.4,1.8c-1.2-0.2-2-1.2-1.8-2.4c0.2-1.2,1.2-2,2.4-1.8C207.4,393.4,208.2,394.5,208,395.6z"/>
</g>
<g>
	<path class="st4" d="M247.3,395.5c0,1.1-0.9,2-1.9,2c-1,0-1.9-0.9-1.9-2c0-1.1,0.9-2,1.9-2C246.4,393.5,247.3,394.4,247.3,395.5z"
		/>
	<path class="st4" d="M254.9,395.5c0,1.1-0.9,2-1.9,2c-1,0-1.9-0.9-1.9-2c0-1.1,0.9-2,1.9-2C254,393.5,254.9,394.4,254.9,395.5z"/>
	<path class="st4" d="M262.5,395.5c0,1.1-0.9,2-1.9,2c-1,0-1.9-0.9-1.9-2c0-1.1,0.9-2,1.9-2C261.6,393.5,262.5,394.4,262.5,395.5z"
		/>
</g>
</svg>
